<svg id="Layer_1" data-name="Layer 1" xmlns="http://www.w3.org/2000/svg" xmlns:xlink="http://www.w3.org/1999/xlink" viewBox="0 0 512 512"><defs><style>.cls-1{fill:none;}.cls-2{clip-path:url(#clip-path);}.cls-3{fill:#f6a03c;}.cls-4{fill:url(#linear-gradient);}.cls-5{fill:url(#linear-gradient-2);}.cls-6{fill:url(#linear-gradient-3);}.cls-7{fill:url(#linear-gradient-4);}.cls-8{fill:#f65952;}.cls-9{fill:url(#linear-gradient-5);}.cls-10{opacity:0.05;}.cls-11{fill:url(#linear-gradient-6);}.cls-12{fill:#fff;}</style><clipPath id="clip-path"><rect id="path-1" class="cls-1" width="512" height="512" rx="98"/></clipPath><linearGradient id="linear-gradient" x1="256" y1="168" x2="256" y2="512" gradientUnits="userSpaceOnUse"><stop offset="0" stop-color="#f6c43c"/><stop offset="0.22" stop-color="#f8bf33"/><stop offset="0.58" stop-color="#ffb01b"/><stop offset="0.6" stop-color="#ffaf19"/></linearGradient><linearGradient id="linear-gradient-2" x1="-22.63" y1="269.07" x2="120.22" y2="516.49" gradientUnits="userSpaceOnUse"><stop offset="0.1" stop-color="#f6a03c"/><stop offset="0.6" stop-color="#e58128"/></linearGradient><linearGradient id="linear-gradient-3" x1="-406.63" y1="269.07" x2="-263.78" y2="516.49" gradientTransform="matrix(1, 0, 0, -1, 768, 768)" xlink:href="#linear-gradient-2"/><linearGradient id="linear-gradient-4" x1="256" y1="312" x2="256" y2="512" gradientUnits="userSpaceOnUse"><stop offset="0.2" stop-color="#fff"/><stop offset="0.63" stop-color="#fcfcfc"/><stop offset="0.89" stop-color="#f4f4f4"/><stop offset="1" stop-color="#eee"/></linearGradient><linearGradient id="linear-gradient-5" x1="208" y1="40" x2="389" y2="40" gradientUnits="userSpaceOnUse"><stop offset="0" stop-color="#f6a03c"/><stop offset="0.36" stop-color="#f49c39"/><stop offset="0.72" stop-color="#ed8f31"/><stop offset="1" stop-color="#e58128"/></linearGradient><linearGradient id="linear-gradient-6" x1="128" y1="40" x2="309" y2="40" gradientUnits="userSpaceOnUse"><stop offset="0" stop-color="#f6a03c"/><stop offset="0.4" stop-color="#f19736"/><stop offset="1" stop-color="#e58128"/></linearGradient></defs><title>Telurku</title><g class="cls-2"><rect class="cls-3" width="512" height="512"/><path class="cls-4" d="M256,168h0A176,176,0,0,1,432,344V512a0,0,0,0,1,0,0H80a0,0,0,0,1,0,0V344A176,176,0,0,1,256,168Z"/><path class="cls-5" d="M0,256H32a96,96,0,0,1,96,96V512a0,0,0,0,1,0,0H0a0,0,0,0,1,0,0V256A0,0,0,0,1,0,256Z"/><path class="cls-6" d="M384,256H512a0,0,0,0,1,0,0V416a96,96,0,0,1-96,96H384a0,0,0,0,1,0,0V256A0,0,0,0,1,384,256Z" transform="translate(896 768) rotate(180)"/><path class="cls-7" d="M0,312l112.31,63.18a32.05,32.05,0,0,0,31.38,0l96.62-54.36a32.05,32.05,0,0,1,31.38,0l96.62,54.36a32.05,32.05,0,0,0,31.38,0L512,312V512H0Z"/><path class="cls-8" d="M205,307l45.35-45.35a8,8,0,0,1,11.32,0L307,307a8,8,0,0,1,.65,10.56l-45.35,58.31a8,8,0,0,1-12.62,0l-45.35-58.31A8,8,0,0,1,205,307Z"/><path class="cls-9" d="M208,0H389a0,0,0,0,1,0,0V0a80,80,0,0,1-80,80H208a0,0,0,0,1,0,0V0A0,0,0,0,1,208,0Z"/><rect class="cls-10" x="256" width="256" height="512"/><path class="cls-11" d="M128,0H309a0,0,0,0,1,0,0V0a80,80,0,0,1-80,80H128a0,0,0,0,1,0,0V0A0,0,0,0,1,128,0Z"/><circle class="cls-12" cx="160" cy="200" r="80"/><circle cx="168" cy="204" r="54"/><circle class="cls-12" cx="147" cy="168" r="24"/><circle class="cls-12" cx="352" cy="200" r="80"/><circle cx="344" cy="204" r="54"/><circle class="cls-12" cx="323" cy="168" r="24"/></g></svg>